<svg width="100" height="100" viewBox="0 0 100 100" fill="none" xmlns="http://www.w3.org/2000/svg">
<path fill-rule="evenodd" clip-rule="evenodd" d="M49.9999 8.33331C26.9999 8.33331 8.33325 27 8.33325 50C8.33325 73 26.9999 91.6667 49.9999 91.6667C72.9999 91.6667 91.6666 73 91.6666 50C91.6666 27 72.9999 8.33331 49.9999 8.33331ZM41.6666 68.75L66.6666 50L41.6666 31.25V68.75ZM16.6666 50C16.6666 68.375 31.6249 83.3333 49.9999 83.3333C68.3749 83.3333 83.3333 68.375 83.3333 50C83.3333 31.625 68.3749 16.6666 49.9999 16.6666C31.6249 16.6666 16.6666 31.625 16.6666 50Z" fill="white"/>
</svg>
